<svg id="Capa_1" enable-background="new 0 0 497 497" height="512" viewBox="0 0 497 497" width="512" xmlns="http://www.w3.org/2000/svg"><path d="m271.333 0-75.667 90h105.667v-82.5c0-4.142-3.358-7.5-7.5-7.5z" fill="#3ac7cf"/><path d="m195.667 7.5v82.5h75.667v-90h-68.167c-4.143 0-7.5 3.358-7.5 7.5z" fill="#74dce2"/><path d="m120.667 0-75.667 90h105.667v-82.5c0-4.142-3.358-7.5-7.5-7.5z" fill="#3ac7cf"/><path d="m45 7.5v82.5h75.667v-90h-68.167c-4.142 0-7.5 3.358-7.5 7.5z" fill="#74dce2"/><path d="m422 0-75.667 90h105.667v-82.5c0-4.142-3.358-7.5-7.5-7.5z" fill="#3ac7cf"/><path d="m346.333 7.5v82.5h75.667v-90h-68.167c-4.142 0-7.5 3.358-7.5 7.5z" fill="#74dce2"/><path d="m407 411.333 90-60v-145.666l-90-60z" fill="#fe5e49"/><path d="m248.5 145.666h218.5v265.667h-218.5z" fill="#fc7e49"/><path d="m188.5 145.667h60v265.667h-60z" fill="#f7be48"/><path d="m0 205.667v145.666l218.5 60v-265.666z" fill="#f4de48"/><path d="m467 351.333-60 72.833 60 72.834h22.5c4.142 0 7.5-3.358 7.5-7.5v-138.167z" fill="#c6415d"/><path d="m467 497v-145.667h-467v138.167c0 4.142 3.358 7.5 7.5 7.5z" fill="#ff3a33"/><path d="m467 60-60 72.833 60 72.833h30v-138.166c0-4.142-3.358-7.5-7.5-7.5z" fill="#2ba3c2"/><path d="m467 205.667v-145.667h-459.5c-4.142 0-7.5 3.358-7.5 7.5v138.167z" fill="#3ac7cf"/></svg>