<svg id="Capa_1" enable-background="new 0 0 497 497" height="512" viewBox="0 0 497 497" width="512" xmlns="http://www.w3.org/2000/svg"><g><path d="m164.928 20.779h-55.221c-33.461 0-60.586 27.125-60.586 60.586 0 33.461 27.125 60.586 60.586 60.586 4.29 0 8.24 2.335 10.308 6.094l6.995 12.715c4.47 8.126 16.146 8.126 20.616 0l6.995-12.715c2.068-3.759 6.018-6.094 10.308-6.094 33.461 0 60.586-27.126 60.586-60.586 0-33.461-27.126-60.586-60.587-60.586z" fill="#50e1cd"/><path d="m332.072 20.779h55.221c33.461 0 60.586 27.125 60.586 60.586 0 33.461-27.126 60.586-60.586 60.586-4.29 0-8.24 2.335-10.308 6.094l-6.995 12.715c-4.47 8.126-16.146 8.126-20.616 0l-6.995-12.715c-2.068-3.759-6.018-6.094-10.308-6.094-33.461 0-60.586-27.126-60.586-60.586 0-33.461 27.126-60.586 60.587-60.586z" fill="#50e1cd"/><path d="m291.729 476.221c0-37.3 31.415-64.042 31.415-64.042h79.365s31.415 26.742 31.415 64.042z" fill="#93bbe7"/><path d="m278.669 257.259c-12.763.009-19.444-15.266-10.687-24.561 23.323-24.749 56.282-40.332 92.812-40.682 71.813-.701 130.581 58.836 130.581 130.649z" fill="#e8a882"/><path d="m229.018 232.698c-23.323-24.749-56.282-40.332-92.812-40.682-71.812-.7-130.58 58.836-130.58 130.649v54.343c0 31.267 25.347 56.614 56.614 56.614h32.251v-21.443l123.84-154.92c12.763.009 19.444-15.266 10.687-24.561z" fill="#6a647f"/><path d="m63.012 312.816c0-59.773 40.205-109.399 93.005-119.086-6.457-1.063-13.072-1.649-19.81-1.714-71.814-.7-130.581 58.836-130.581 130.649v54.343c0 31.267 25.347 56.614 56.614 56.614h32.251v-21.443l6.744-8.436c-23.426-22.144-38.223-54.668-38.223-90.927z" fill="#5c586f"/><path d="m205.271 476.221c0-37.3-31.415-64.042-31.415-64.042h-79.365s-31.415 26.742-31.415 64.042z" fill="#fdd89f"/><path d="m234.332 321.307c0 55.154-44.911 99.817-100.159 99.407-14.139-.103-27.56-3.144-39.682-8.535-34.804-15.446-58.964-50.284-58.964-90.872 0-11.51 1.957-22.561 5.556-32.84 6.571-18.769 24.458-31.207 44.344-31.207h132.905c14.59 17.299 16 39.648 16 64.047z" fill="#da9d81"/><g><g><path d="m98.034 331.277c-4.143 0-7.5-3.358-7.5-7.5v-10.252c0-4.142 3.357-7.5 7.5-7.5s7.5 3.358 7.5 7.5v10.252c0 4.142-3.358 7.5-7.5 7.5z" fill="#423e4f"/></g><g><path d="m204.734 331.277c-4.143 0-7.5-3.358-7.5-7.5v-10.252c0-4.142 3.357-7.5 7.5-7.5s7.5 3.358 7.5 7.5v10.252c0 4.142-3.358 7.5-7.5 7.5z" fill="#423e4f"/></g><g><path d="m151.383 337.38c-7.559 0-14.746-3.273-19.72-8.98-2.722-3.123-2.396-7.86.727-10.582 3.122-2.721 7.859-2.396 10.582.727 2.124 2.437 5.189 3.835 8.411 3.835s6.287-1.398 8.411-3.835c2.72-3.123 7.458-3.448 10.582-.727 3.122 2.721 3.448 7.459.727 10.582-4.974 5.706-12.161 8.98-19.72 8.98z" fill="#423e4f"/></g></g><g><path d="m90.534 476.221v-23.07c0-4.142 3.357-7.5 7.5-7.5s7.5 3.358 7.5 7.5v23.07z" fill="#fbc072"/></g><g><path d="m162.813 476.221v-23.07c0-4.142 3.357-7.5 7.5-7.5s7.5 3.358 7.5 7.5v23.07z" fill="#fbc072"/></g><circle cx="463.18" cy="323.018" fill="#ffcabd" r="33.82"/><path d="m381.429 193.5c-6.726-1.038-13.617-1.552-20.635-1.483-36.53.35-69.489 15.933-92.812 40.682-8.757 9.295-2.076 24.57 10.688 24.561l14.14 4.348c16.676-34.062 49.238-59.645 88.619-68.108z" fill="#e3986d"/><path d="m262.668 321.307c0 55.154 44.911 99.817 100.159 99.407 14.139-.103 27.56-3.144 39.682-8.535 34.804-15.446 58.964-50.284 58.964-90.872 0-11.51-1.957-22.561-5.556-32.84-6.571-18.769-24.458-31.207-44.344-31.207h-132.904c-14.591 17.299-16.001 39.648-16.001 64.047z" fill="#ffdcce"/><g><g><path d="m398.967 331.277c-4.143 0-7.5-3.358-7.5-7.5v-10.252c0-4.142 3.357-7.5 7.5-7.5s7.5 3.358 7.5 7.5v10.252c0 4.142-3.357 7.5-7.5 7.5z" fill="#423e4f"/></g><g><path d="m292.266 331.277c-4.143 0-7.5-3.358-7.5-7.5v-10.252c0-4.142 3.357-7.5 7.5-7.5s7.5 3.358 7.5 7.5v10.252c0 4.142-3.357 7.5-7.5 7.5z" fill="#423e4f"/></g><g><path d="m345.617 337.38c-7.559 0-14.746-3.273-19.72-8.98-2.722-3.123-2.396-7.86.727-10.582 3.122-2.721 7.859-2.396 10.582.727 2.124 2.437 5.189 3.835 8.411 3.835s6.287-1.398 8.411-3.835c2.721-3.123 7.457-3.448 10.582-.727 3.122 2.721 3.448 7.459.727 10.582-4.974 5.706-12.162 8.98-19.72 8.98z" fill="#423e4f"/></g></g><g><path d="m391.467 476.221v-23.07c0-4.142 3.357-7.5 7.5-7.5s7.5 3.358 7.5 7.5v23.07z" fill="#69a2de"/></g><g><path d="m319.187 476.221v-23.07c0-4.142 3.357-7.5 7.5-7.5s7.5 3.358 7.5 7.5v23.07z" fill="#69a2de"/></g><g fill="#fff"><circle cx="137.318" cy="81.365" r="7.583"/><circle cx="105.441" cy="81.365" r="7.583"/><circle cx="169.195" cy="81.365" r="7.583"/><circle cx="359.682" cy="81.365" r="7.583"/><circle cx="391.559" cy="81.365" r="7.583"/><circle cx="327.805" cy="81.365" r="7.583"/></g><path d="m63.012 312.816c0-19.563 4.312-38.038 11.957-54.384-15.482 3.501-28.495 14.633-33.887 30.034-.176.502-.329 1.015-.497 1.521-2.03-.512-4.273-.789-6.765-.789-18.679 0-33.82 15.142-33.82 33.82s15.141 33.82 33.82 33.82c2.932 0 5.529-.374 7.826-1.075 9.276 25.204 28.435 45.583 52.845 56.416 8.978 3.992 18.669 6.692 28.835 7.868-35.837-20.134-60.314-60.594-60.314-107.231z" fill="#c7856a"/><path d="m280.759 313.549c0-20.284 5.156-39.42 14.283-56.29h-16.373c-14.592 17.3-16.001 39.648-16.001 64.047 0 48.445 34.651 88.792 80.521 97.613-37.418-21.561-62.43-60.683-62.43-105.37z" fill="#ffcabd"/><path d="m80.821 68.531c0-17.375 6.317-33.458 17.048-46.588-27.792 5.507-48.748 30.014-48.748 59.422 0 33.461 27.125 60.587 60.586 60.587 4.29 0 8.24 2.335 10.308 6.094l6.995 12.715c4.47 8.125 16.146 8.125 20.616 0l5.343-9.711c-39.198-12.249-72.148-46.934-72.148-82.519z" fill="#00d1b3"/></g></svg>