<?xml version="1.0" encoding="iso-8859-1"?>
<!-- Generator: Adobe Illustrator 19.0.0, SVG Export Plug-In . SVG Version: 6.00 Build 0)  -->
<svg version="1.1" id="Capa_1" xmlns="http://www.w3.org/2000/svg" xmlns:xlink="http://www.w3.org/1999/xlink" x="0px" y="0px"
	 viewBox="0 0 512 512" style="enable-background:new 0 0 512 512;" xml:space="preserve">
<circle style="fill:#40C488;" cx="256" cy="256" r="256"/>
<path style="fill:#F7F7F7;" d="M392.251,39.251H173.389c-14.042,0-25.465,11.424-25.465,25.465v266.023
	c0,14.041,11.424,25.465,25.465,25.465h313.146c1.836,0,3.626-0.2,5.353-0.571C504.839,325.009,512,291.341,512,256
	C512,164.695,464.191,84.568,392.251,39.251z"/>
<path style="fill:#DFE1E5;" d="M208.116,330.739V64.715c0-14.041,11.424-25.465,25.465-25.465h-60.192
	c-14.042,0-25.465,11.424-25.465,25.465v266.023c0,14.041,11.424,25.465,25.465,25.465h60.192
	C219.539,356.203,208.116,344.78,208.116,330.739z"/>
<path style="fill:#6BCAF9;" d="M481.904,319.948V135.495c-13.237-24.762-30.424-47.091-50.723-66.149H184.18
	c-3.402,0-6.16,2.758-6.16,6.16v244.442c0,3.402,2.758,6.159,6.16,6.159h291.565C479.147,326.107,481.904,323.35,481.904,319.948z"
	/>
<path style="fill:#57B5E9;" d="M184.18,69.346c-3.402,0-6.16,2.758-6.16,6.16v244.442c0,3.402,2.758,6.16,6.16,6.16h23.936V69.346
	H184.18z"/>
<path style="fill:#43A0D8;" d="M481.904,212.653l-73.974-74.495c-8.162-8.22-21.456-8.219-29.618,0l-68.547,69.03l32.143,32.37
	c2.625-1.052,5.486-1.64,8.489-1.64c5.788,0,11.065,2.151,15.091,5.695c3.05,2.684,7.705,2.684,10.754,0
	c4.026-3.543,9.304-5.695,15.091-5.695c5.811,0,11.108,2.169,15.14,5.738c3.014,2.668,7.642,2.668,10.656,0
	c4.033-3.569,9.329-5.738,15.14-5.738c5.823,0,11.129,2.177,15.164,5.759c2.997,2.66,7.612,2.66,10.609,0
	c4.036-3.582,9.342-5.759,15.164-5.759c3.083,0,6.014,0.623,8.695,1.728v-26.993H481.904z"/>
<path style="fill:#238CC1;" d="M412.704,142.965l-4.773-4.807c-8.162-8.22-21.456-8.219-29.618,0l-68.547,69.03l19.582,19.72
	L412.704,142.965z"/>
<path style="fill:#57B5E9;" d="M212.438,243.664c4.034-3.575,9.334-5.747,15.15-5.747c5.827,0,11.137,2.181,15.174,5.767
	c2.99,2.657,7.6,2.657,10.59,0c4.036-3.587,9.346-5.767,15.173-5.767c5.801,0,11.09,2.162,15.12,5.72
	c3.029,2.675,7.668,2.675,10.697,0c4.03-3.558,9.319-5.72,15.12-5.72c5.827,0,11.137,2.181,15.173,5.767
	c2.99,2.657,7.6,2.657,10.59,0c1.956-1.738,4.216-3.137,6.684-4.127l-68.661-69.145c-5.979-6.021-15.717-6.021-21.697,0
	l-67.143,67.616c0.737-0.073,1.485-0.112,2.242-0.112c5.816,0,11.117,2.172,15.151,5.747
	C204.809,246.328,209.431,246.328,212.438,243.664z"/>
<path style="fill:#43A0D8;" d="M201.802,243.664c3.006,2.664,7.629,2.664,10.636,0c2.166-1.92,4.706-3.417,7.486-4.409
	l60.842-61.272l-7.518-7.571c-5.979-6.021-15.717-6.021-21.697,0l-67.143,67.616c0.738-0.073,1.485-0.112,2.242-0.112
	C192.467,237.917,197.768,240.09,201.802,243.664z"/>
<path style="fill:#40C488;" d="M458.045,241.447c-2.997,2.659-7.612,2.659-10.609-0.001c-4.035-3.581-9.341-5.759-15.164-5.759
	c-5.811,0-11.108,2.169-15.14,5.738c-3.014,2.667-7.642,2.667-10.656,0c-4.032-3.569-9.329-5.738-15.14-5.738
	c-5.788,0-11.065,2.151-15.091,5.695c-3.05,2.684-7.704,2.684-10.754,0.001c-4.026-3.544-9.304-5.695-15.091-5.695
	c-5.827,0-11.137,2.181-15.173,5.768c-2.99,2.657-7.6,2.657-10.59,0c-4.036-3.587-9.346-5.768-15.173-5.768
	c-5.801,0-11.09,2.162-15.12,5.72c-3.029,2.675-7.668,2.675-10.697-0.001c-4.03-3.558-9.319-5.72-15.12-5.72
	c-5.827,0-11.137,2.181-15.173,5.768c-2.99,2.657-7.601,2.657-10.59,0c-4.037-3.587-9.347-5.768-15.174-5.768
	c-5.816,0-11.117,2.173-15.15,5.747c-3.007,2.664-7.629,2.664-10.636,0c-4.034-3.575-9.335-5.747-15.151-5.747
	c-3.058,0-5.967,0.613-8.631,1.702v82.558c0,3.401,2.756,6.158,6.157,6.16h291.57c3.401-0.002,6.157-2.759,6.157-6.16v-82.531
	c-2.681-1.106-5.612-1.729-8.695-1.729C467.387,235.688,462.081,237.865,458.045,241.447z"/>
<path style="fill:#37B77A;" d="M208.116,326.107v-82.742c-2.226,0.273-4.548-0.365-6.314-1.93
	c-4.034-3.575-9.335-5.748-15.151-5.748c-3.058,0-5.967,0.613-8.631,1.702v82.558c0,0.75,0.141,1.465,0.386,2.13
	c0.103,0.278,0.218,0.549,0.357,0.806c0.004,0.007,0.009,0.014,0.013,0.021c0.187,0.341,0.404,0.663,0.65,0.961
	c0.049,0.059,0.104,0.113,0.155,0.17c0.08,0.09,0.158,0.182,0.243,0.267c0.067,0.067,0.141,0.128,0.211,0.192
	c0.075,0.069,0.147,0.141,0.226,0.205c0.072,0.06,0.15,0.112,0.225,0.168c0.083,0.063,0.163,0.128,0.25,0.187
	c0.059,0.04,0.123,0.073,0.183,0.112c0.107,0.067,0.213,0.136,0.325,0.197c0.057,0.031,0.117,0.055,0.175,0.084
	c0.12,0.06,0.239,0.122,0.363,0.175c0.082,0.035,0.168,0.061,0.252,0.092c0.104,0.039,0.207,0.082,0.314,0.115
	c0.123,0.038,0.25,0.066,0.376,0.097c0.072,0.017,0.141,0.04,0.214,0.055c0.115,0.023,0.234,0.037,0.352,0.054
	c0.087,0.013,0.172,0.031,0.26,0.04c0.081,0.008,0.165,0.008,0.247,0.012c0.128,0.008,0.254,0.02,0.384,0.02L208.116,326.107
	L208.116,326.107z"/>
<g>
	<circle style="fill:#FEC63B;" cx="305.12" cy="122.74" r="15.05"/>
	<path style="fill:#FEC63B;" d="M420.969,274.701c-22.754,0-22.754,20.064-45.509,20.064s-22.755-20.064-45.511-20.064
		c-22.754,0-22.754,20.064-45.508,20.064s-22.754-20.064-45.507-20.064c-22.751,0-22.751,20.064-45.502,20.064
		c-6.743,0-11.481-1.768-15.411-4.247v29.43c0,3.401,2.756,6.158,6.157,6.16h291.57c3.401-0.002,6.157-2.759,6.157-6.16v-29.434
		c-3.932,2.481-8.672,4.251-15.42,4.251C443.727,294.765,443.727,274.701,420.969,274.701z"/>
</g>
<path style="fill:#F3A225;" d="M208.116,326.107v-35.141c-3.788,2.242-8.354,3.798-14.684,3.798c-6.743,0-11.481-1.768-15.412-4.247
	v29.43c0,0.75,0.141,1.465,0.386,2.13c0.103,0.278,0.218,0.549,0.357,0.806c0.004,0.007,0.009,0.014,0.013,0.021
	c0.187,0.341,0.404,0.663,0.65,0.961c0.049,0.059,0.104,0.113,0.155,0.17c0.08,0.09,0.158,0.182,0.243,0.267
	c0.067,0.067,0.141,0.128,0.211,0.192c0.075,0.069,0.147,0.141,0.226,0.205c0.072,0.06,0.15,0.112,0.225,0.168
	c0.083,0.063,0.163,0.128,0.25,0.187c0.059,0.04,0.123,0.073,0.183,0.112c0.107,0.067,0.213,0.136,0.325,0.197
	c0.057,0.031,0.117,0.055,0.175,0.084c0.12,0.06,0.239,0.122,0.363,0.175c0.082,0.035,0.168,0.061,0.252,0.092
	c0.104,0.039,0.207,0.082,0.314,0.115c0.123,0.038,0.25,0.066,0.376,0.097c0.072,0.017,0.141,0.04,0.214,0.055
	c0.115,0.023,0.234,0.037,0.352,0.054c0.087,0.013,0.172,0.031,0.26,0.04c0.081,0.008,0.165,0.008,0.247,0.012
	c0.128,0.008,0.254,0.02,0.384,0.02L208.116,326.107L208.116,326.107z"/>
<path style="fill:#F7F7F7;" d="M426.407,416.146H113.261c-14.042,0-25.465-11.424-25.465-25.465V124.658
	c0-14.041,11.424-25.465,25.465-25.465h313.146c14.042,0,25.465,11.424,25.465,25.465v266.023
	C451.872,404.723,440.448,416.146,426.407,416.146z"/>
<path style="fill:#DFE1E5;" d="M147.988,390.682V124.658c0-14.041,11.424-25.465,25.465-25.465h-60.192
	c-14.042,0-25.465,11.424-25.465,25.465v266.023c0,14.041,11.424,25.465,25.465,25.465h60.192
	C159.411,416.146,147.988,404.723,147.988,390.682z"/>
<path style="fill:#6BCAF9;" d="M124.052,386.051h291.565c3.402,0,6.16-2.758,6.16-6.16V135.449c0-3.402-2.758-6.16-6.16-6.16
	H124.052c-3.402,0-6.16,2.758-6.16,6.16v244.442C117.892,383.293,120.65,386.051,124.052,386.051z"/>
<path style="fill:#57B5E9;" d="M124.052,129.289c-3.402,0-6.16,2.758-6.16,6.16v244.442c0,3.402,2.758,6.16,6.16,6.16h23.936
	V129.289H124.052z"/>
<path style="fill:#43A0D8;" d="M421.776,272.596l-73.974-74.495c-8.162-8.22-21.456-8.219-29.618,0l-68.547,69.03l32.143,32.37
	c2.625-1.052,5.486-1.64,8.489-1.64c5.788,0,11.066,2.151,15.091,5.695c3.05,2.684,7.705,2.684,10.754,0
	c4.027-3.543,9.304-5.695,15.091-5.695c5.811,0,11.108,2.169,15.14,5.738c3.014,2.668,7.642,2.668,10.656,0
	c4.033-3.569,9.329-5.738,15.14-5.738c5.823,0,11.129,2.177,15.164,5.759c2.997,2.66,7.612,2.66,10.609,0
	c4.036-3.582,9.342-5.759,15.164-5.759c3.083,0,6.014,0.623,8.695,1.728v-26.993H421.776z"/>
<path style="fill:#238CC1;" d="M352.576,202.908l-4.773-4.807c-8.162-8.22-21.456-8.219-29.618,0l-68.547,69.03l19.582,19.72
	L352.576,202.908z"/>
<path style="fill:#57B5E9;" d="M152.31,303.608c4.034-3.575,9.334-5.747,15.15-5.747c5.827,0,11.137,2.181,15.174,5.767
	c2.99,2.657,7.6,2.657,10.59,0c4.036-3.587,9.346-5.767,15.173-5.767c5.801,0,11.09,2.162,15.12,5.72
	c3.029,2.675,7.668,2.675,10.697,0c4.03-3.558,9.319-5.72,15.12-5.72c5.827,0,11.137,2.181,15.173,5.767
	c2.99,2.657,7.6,2.657,10.59,0c1.956-1.738,4.216-3.137,6.684-4.127l-68.661-69.145c-5.979-6.021-15.717-6.021-21.697,0
	l-67.143,67.616c0.737-0.073,1.485-0.112,2.242-0.112c5.816,0,11.117,2.172,15.151,5.747
	C144.681,306.272,149.303,306.272,152.31,303.608z"/>
<path style="fill:#43A0D8;" d="M141.674,303.608c3.006,2.664,7.629,2.664,10.636,0c2.166-1.92,4.706-3.417,7.486-4.409
	l60.842-61.272l-7.518-7.571c-5.979-6.021-15.717-6.021-21.697,0l-67.143,67.616c0.738-0.073,1.485-0.112,2.242-0.112
	C132.339,297.86,137.64,300.033,141.674,303.608z"/>
<path style="fill:#40C488;" d="M397.917,301.39c-2.997,2.659-7.612,2.659-10.609-0.001c-4.035-3.581-9.341-5.759-15.164-5.759
	c-5.811,0-11.108,2.169-15.14,5.738c-3.014,2.667-7.642,2.667-10.656,0c-4.032-3.569-9.329-5.738-15.14-5.738
	c-5.788,0-11.065,2.151-15.091,5.695c-3.05,2.684-7.704,2.684-10.754,0.001c-4.026-3.544-9.304-5.695-15.091-5.695
	c-5.827,0-11.137,2.181-15.173,5.768c-2.99,2.657-7.6,2.657-10.59,0c-4.036-3.587-9.346-5.768-15.173-5.768
	c-5.801,0-11.09,2.162-15.12,5.72c-3.029,2.675-7.668,2.675-10.697-0.001c-4.03-3.558-9.319-5.72-15.12-5.72
	c-5.827,0-11.137,2.181-15.173,5.768c-2.99,2.657-7.601,2.657-10.59,0c-4.037-3.587-9.347-5.768-15.174-5.768
	c-5.816,0-11.117,2.173-15.15,5.747c-3.007,2.664-7.629,2.664-10.636,0c-4.034-3.575-9.335-5.747-15.151-5.747
	c-3.058,0-5.967,0.613-8.631,1.702v82.558c0,3.401,2.756,6.158,6.157,6.16h291.57c3.401-0.002,6.157-2.759,6.157-6.16v-82.531
	c-2.681-1.106-5.612-1.729-8.695-1.729C407.259,295.631,401.953,297.808,397.917,301.39z"/>
<path style="fill:#37B77A;" d="M147.988,386.05v-82.742c-2.226,0.273-4.548-0.365-6.314-1.93c-4.034-3.575-9.335-5.748-15.151-5.748
	c-3.058,0-5.967,0.613-8.631,1.702v82.558c0,0.75,0.141,1.465,0.386,2.13c0.103,0.278,0.218,0.549,0.357,0.806
	c0.004,0.007,0.009,0.014,0.013,0.021c0.187,0.341,0.404,0.663,0.65,0.961c0.049,0.059,0.104,0.113,0.155,0.17
	c0.08,0.09,0.158,0.182,0.243,0.267c0.067,0.067,0.141,0.128,0.211,0.192c0.075,0.069,0.147,0.141,0.226,0.205
	c0.072,0.06,0.15,0.112,0.225,0.168c0.083,0.063,0.163,0.128,0.25,0.187c0.059,0.04,0.123,0.073,0.183,0.112
	c0.107,0.067,0.213,0.136,0.325,0.197c0.057,0.031,0.117,0.055,0.175,0.084c0.12,0.06,0.239,0.122,0.363,0.175
	c0.082,0.035,0.168,0.061,0.252,0.092c0.104,0.039,0.207,0.082,0.314,0.115c0.123,0.038,0.25,0.066,0.376,0.097
	c0.072,0.017,0.141,0.04,0.214,0.055c0.115,0.023,0.234,0.037,0.352,0.054c0.087,0.013,0.172,0.031,0.26,0.04
	c0.081,0.008,0.165,0.008,0.247,0.012c0.128,0.008,0.254,0.02,0.384,0.02L147.988,386.05L147.988,386.05z"/>
<g>
	<circle style="fill:#FEC63B;" cx="245" cy="182.68" r="15.05"/>
	<path style="fill:#FEC63B;" d="M360.841,334.644c-22.754,0-22.754,20.064-45.509,20.064s-22.755-20.064-45.511-20.064
		c-22.754,0-22.754,20.064-45.508,20.064s-22.754-20.064-45.507-20.064c-22.751,0-22.751,20.064-45.502,20.064
		c-6.743,0-11.481-1.768-15.411-4.247v29.43c0,3.401,2.756,6.158,6.157,6.16h291.57c3.401-0.002,6.157-2.759,6.157-6.16v-29.434
		c-3.932,2.481-8.672,4.251-15.42,4.251C383.599,354.708,383.599,334.644,360.841,334.644z"/>
</g>
<path style="fill:#F3A225;" d="M147.988,386.05v-35.14c-3.788,2.242-8.354,3.798-14.684,3.798c-6.743,0-11.481-1.768-15.412-4.247
	v29.43c0,0.75,0.141,1.465,0.386,2.13c0.103,0.278,0.218,0.549,0.357,0.806c0.004,0.007,0.009,0.014,0.013,0.021
	c0.187,0.341,0.404,0.663,0.65,0.961c0.049,0.059,0.104,0.113,0.155,0.17c0.08,0.09,0.158,0.182,0.243,0.267
	c0.067,0.067,0.141,0.128,0.211,0.192c0.075,0.069,0.147,0.141,0.226,0.205c0.072,0.06,0.15,0.112,0.225,0.168
	c0.083,0.063,0.163,0.128,0.25,0.187c0.059,0.04,0.123,0.073,0.183,0.112c0.107,0.067,0.213,0.136,0.325,0.197
	c0.057,0.031,0.117,0.055,0.175,0.084c0.12,0.06,0.239,0.122,0.363,0.175c0.082,0.035,0.168,0.061,0.252,0.092
	c0.104,0.039,0.207,0.082,0.314,0.115c0.123,0.038,0.25,0.066,0.376,0.097c0.072,0.017,0.141,0.04,0.214,0.055
	c0.115,0.023,0.234,0.037,0.352,0.054c0.087,0.013,0.172,0.031,0.26,0.04c0.081,0.008,0.165,0.008,0.247,0.012
	c0.128,0.008,0.254,0.02,0.384,0.02L147.988,386.05L147.988,386.05z"/>
<path style="fill:#F7F7F7;" d="M366.215,476.09H53.07c-14.042,0-25.465-11.424-25.465-25.465V184.602
	c0-14.041,11.424-25.465,25.465-25.465h313.146c14.042,0,25.465,11.424,25.465,25.465v266.023
	C391.68,464.666,380.257,476.09,366.215,476.09z"/>
<path style="fill:#DFE1E5;" d="M87.796,450.625V184.602c0-14.041,11.424-25.465,25.465-25.465H53.07
	c-14.042,0-25.465,11.424-25.465,25.465v266.023c0,14.041,11.424,25.465,25.465,25.465h60.192
	C99.22,476.09,87.796,464.666,87.796,450.625z"/>
<path style="fill:#6BCAF9;" d="M63.86,445.994h291.565c3.402,0,6.16-2.758,6.16-6.16V195.392c0-3.402-2.758-6.16-6.16-6.16H63.86
	c-3.402,0-6.16,2.758-6.16,6.16v244.442C57.7,443.236,60.458,445.994,63.86,445.994z"/>
<path style="fill:#57B5E9;" d="M63.86,189.233c-3.402,0-6.16,2.758-6.16,6.16v244.442c0,3.402,2.758,6.16,6.16,6.16h23.936V189.233
	H63.86z"/>
<path style="fill:#43A0D8;" d="M361.585,332.54l-73.974-74.495c-8.162-8.22-21.456-8.219-29.618,0l-68.547,69.03l32.143,32.37
	c2.625-1.052,5.486-1.64,8.489-1.64c5.788,0,11.066,2.151,15.091,5.695c3.05,2.684,7.705,2.684,10.754,0
	c4.027-3.543,9.304-5.695,15.091-5.695c5.811,0,11.108,2.169,15.14,5.738c3.014,2.668,7.642,2.668,10.656,0
	c4.033-3.569,9.329-5.738,15.14-5.738c5.823,0,11.129,2.177,15.164,5.759c2.997,2.66,7.612,2.66,10.609,0
	c4.036-3.582,9.342-5.759,15.164-5.759c3.083,0,6.014,0.623,8.695,1.728V332.54H361.585z"/>
<path style="fill:#238CC1;" d="M292.384,262.851l-4.773-4.807c-8.162-8.22-21.456-8.219-29.618,0l-68.547,69.03l19.582,19.72
	L292.384,262.851z"/>
<path style="fill:#57B5E9;" d="M92.118,363.551c4.034-3.575,9.334-5.747,15.15-5.747c5.827,0,11.137,2.181,15.174,5.767
	c2.99,2.657,7.6,2.657,10.59,0c4.036-3.587,9.346-5.767,15.173-5.767c5.801,0,11.09,2.162,15.12,5.72
	c3.029,2.675,7.668,2.675,10.697,0c4.03-3.558,9.319-5.72,15.12-5.72c5.827,0,11.137,2.181,15.173,5.767
	c2.99,2.657,7.6,2.657,10.59,0c1.956-1.738,4.216-3.137,6.684-4.127l-68.661-69.145c-5.979-6.021-15.717-6.021-21.697,0
	l-67.143,67.616c0.737-0.073,1.485-0.112,2.242-0.112c5.816,0,11.117,2.172,15.151,5.747
	C84.489,366.215,89.112,366.215,92.118,363.551z"/>
<path style="fill:#43A0D8;" d="M81.483,363.551c3.006,2.664,7.629,2.664,10.636,0c2.166-1.92,4.706-3.417,7.486-4.409l60.842-61.272
	l-7.518-7.571c-5.979-6.021-15.717-6.021-21.697,0l-67.143,67.616c0.738-0.073,1.485-0.112,2.242-0.112
	C72.147,357.803,77.449,359.976,81.483,363.551z"/>
<path style="fill:#40C488;" d="M337.725,361.333c-2.997,2.659-7.612,2.659-10.609-0.001c-4.035-3.581-9.341-5.759-15.164-5.759
	c-5.811,0-11.108,2.169-15.14,5.738c-3.014,2.667-7.642,2.667-10.656,0c-4.032-3.569-9.329-5.738-15.14-5.738
	c-5.788,0-11.065,2.151-15.091,5.695c-3.05,2.684-7.704,2.684-10.754,0.001c-4.026-3.544-9.304-5.695-15.091-5.695
	c-5.827,0-11.137,2.181-15.173,5.768c-2.99,2.657-7.6,2.657-10.59,0c-4.036-3.587-9.346-5.768-15.173-5.768
	c-5.801,0-11.09,2.162-15.12,5.72c-3.029,2.675-7.668,2.675-10.697-0.001c-4.03-3.558-9.319-5.72-15.12-5.72
	c-5.827,0-11.137,2.181-15.173,5.768c-2.99,2.657-7.601,2.657-10.59,0c-4.037-3.587-9.347-5.768-15.174-5.768
	c-5.816,0-11.117,2.173-15.15,5.747c-3.007,2.664-7.629,2.664-10.636,0c-4.034-3.575-9.335-5.747-15.151-5.747
	c-3.058,0-5.967,0.613-8.631,1.702v82.558c0,3.401,2.756,6.158,6.157,6.16h291.57c3.401-0.002,6.157-2.759,6.157-6.16v-82.531
	c-2.681-1.106-5.612-1.729-8.695-1.729C347.067,355.574,341.761,357.752,337.725,361.333z"/>
<path style="fill:#37B77A;" d="M87.796,445.994v-82.742c-2.226,0.273-4.548-0.365-6.314-1.93c-4.034-3.575-9.335-5.748-15.151-5.748
	c-3.058,0-5.967,0.613-8.631,1.702v82.558c0,0.75,0.141,1.465,0.386,2.13c0.103,0.278,0.218,0.549,0.357,0.806
	c0.004,0.007,0.009,0.014,0.013,0.021c0.187,0.341,0.404,0.663,0.65,0.961c0.049,0.059,0.104,0.113,0.155,0.17
	c0.08,0.09,0.158,0.182,0.243,0.267c0.067,0.067,0.141,0.128,0.211,0.192c0.075,0.069,0.147,0.141,0.226,0.205
	c0.072,0.06,0.15,0.112,0.225,0.168c0.083,0.063,0.163,0.128,0.25,0.187c0.059,0.04,0.123,0.073,0.183,0.112
	c0.107,0.067,0.213,0.136,0.325,0.197c0.057,0.031,0.117,0.055,0.175,0.084c0.12,0.06,0.239,0.122,0.363,0.175
	c0.082,0.035,0.168,0.061,0.252,0.092c0.104,0.039,0.207,0.082,0.314,0.115c0.123,0.038,0.25,0.066,0.376,0.097
	c0.072,0.017,0.141,0.04,0.214,0.055c0.115,0.023,0.234,0.037,0.352,0.054c0.087,0.013,0.172,0.031,0.26,0.04
	c0.081,0.008,0.165,0.008,0.247,0.012c0.128,0.008,0.254,0.02,0.384,0.02L87.796,445.994L87.796,445.994z"/>
<circle style="fill:#FEC63B;" cx="184.8" cy="242.62" r="15.05"/>
<path style="fill:#F3A225;" d="M184.803,242.622c-2.783-4.821-2.583-10.535,0.007-15.036c-2.56-0.004-5.154,0.632-7.531,2.004
	c-7.197,4.155-9.663,13.358-5.508,20.556c4.155,7.197,13.359,9.663,20.556,5.508c2.376-1.372,4.224-3.301,5.501-5.52
	C192.635,250.127,187.586,247.443,184.803,242.622z"/>
<path style="fill:#FEC63B;" d="M300.649,394.587c-22.754,0-22.754,20.064-45.509,20.064s-22.755-20.064-45.511-20.064
	c-22.754,0-22.754,20.064-45.508,20.064s-22.754-20.064-45.507-20.064c-22.751,0-22.751,20.064-45.502,20.064
	c-6.743,0-11.481-1.768-15.411-4.247v29.43c0,3.401,2.756,6.158,6.157,6.16h291.57c3.401-0.002,6.157-2.759,6.157-6.16V410.4
	c-3.932,2.481-8.672,4.251-15.42,4.251C323.407,414.651,323.407,394.587,300.649,394.587z"/>
<path style="fill:#F3A225;" d="M87.796,445.994v-35.141c-3.788,2.242-8.354,3.798-14.684,3.798c-6.743,0-11.481-1.768-15.412-4.247
	v29.43c0,0.75,0.141,1.465,0.386,2.13c0.103,0.278,0.218,0.549,0.357,0.806c0.004,0.007,0.009,0.014,0.013,0.021
	c0.187,0.341,0.404,0.663,0.65,0.961c0.049,0.059,0.104,0.113,0.155,0.17c0.08,0.09,0.158,0.182,0.243,0.267
	c0.067,0.067,0.141,0.128,0.211,0.192c0.075,0.069,0.147,0.141,0.226,0.205c0.072,0.06,0.15,0.112,0.225,0.168
	c0.083,0.063,0.163,0.128,0.25,0.187c0.059,0.04,0.123,0.073,0.183,0.112c0.107,0.067,0.213,0.136,0.325,0.197
	c0.057,0.031,0.117,0.055,0.175,0.084c0.12,0.06,0.239,0.122,0.363,0.175c0.082,0.035,0.168,0.061,0.252,0.092
	c0.104,0.039,0.207,0.082,0.314,0.115c0.123,0.038,0.25,0.066,0.376,0.097c0.072,0.017,0.141,0.04,0.214,0.055
	c0.115,0.023,0.234,0.037,0.352,0.054c0.087,0.013,0.172,0.031,0.26,0.04c0.081,0.008,0.165,0.008,0.247,0.012
	c0.128,0.008,0.254,0.02,0.384,0.02L87.796,445.994L87.796,445.994z"/>
<g>
</g>
<g>
</g>
<g>
</g>
<g>
</g>
<g>
</g>
<g>
</g>
<g>
</g>
<g>
</g>
<g>
</g>
<g>
</g>
<g>
</g>
<g>
</g>
<g>
</g>
<g>
</g>
<g>
</g>
</svg>
